<?xml version="1.0" encoding="UTF-8" standalone="no"?>
<!-- Created with Inkscape (http://www.inkscape.org/) -->

<svg
   xmlns:dc="http://purl.org/dc/elements/1.1/"
   xmlns:cc="http://creativecommons.org/ns#"
   xmlns:rdf="http://www.w3.org/1999/02/22-rdf-syntax-ns#"
   xmlns:svg="http://www.w3.org/2000/svg"
   xmlns="http://www.w3.org/2000/svg"
   xmlns:sodipodi="http://sodipodi.sourceforge.net/DTD/sodipodi-0.dtd"
   xmlns:inkscape="http://www.inkscape.org/namespaces/inkscape"
   version="1.1"
   id="svg2"
   xml:space="preserve"
   width="768"
   height="576"
   viewBox="0 0 768 576"
   sodipodi:docname="NatMedicine_Glioblastoma_ICR_vs_CONSTRU.svg"
   inkscape:version="0.92.5 (2060ec1f9f, 2020-04-08)"><metadata
     id="metadata8"><rdf:RDF><cc:Work
         rdf:about=""><dc:format>image/svg+xml</dc:format><dc:type
           rdf:resource="http://purl.org/dc/dcmitype/StillImage" /><dc:title></dc:title></cc:Work></rdf:RDF></metadata><defs
     id="defs6"><clipPath
       clipPathUnits="userSpaceOnUse"
       id="clipPath76"><path
         d="M 0,0 H 576 V 432 H 0 Z"
         id="path74"
         inkscape:connector-curvature="0" /></clipPath><clipPath
       clipPathUnits="userSpaceOnUse"
       id="clipPath88"><path
         d="M 47.69,41.57 H 449.02 V 408.84 H 47.69 Z"
         id="path86"
         inkscape:connector-curvature="0" /></clipPath></defs><sodipodi:namedview
     pagecolor="#ffffff"
     bordercolor="#666666"
     borderopacity="1"
     objecttolerance="10"
     gridtolerance="10"
     guidetolerance="10"
     inkscape:pageopacity="0"
     inkscape:pageshadow="2"
     inkscape:window-width="2486"
     inkscape:window-height="1376"
     id="namedview4"
     showgrid="false"
     inkscape:zoom="1"
     inkscape:cx="384"
     inkscape:cy="288"
     inkscape:window-x="74"
     inkscape:window-y="27"
     inkscape:window-maximized="1"
     inkscape:current-layer="g10" /><g
     id="g10"
     inkscape:groupmode="layer"
     inkscape:label="NatMedicine_Glioblastoma_ICR_vs_CONSTRU"
     transform="matrix(1.3333333,0,0,-1.3333333,0,576)"><g
       id="g12"><path
         d="M 0,0 H 576 V 432 H 0 Z"
         style="fill:#ffffff;fill-opacity:1;fill-rule:nonzero;stroke:none"
         id="path14"
         inkscape:connector-curvature="0" /></g><g
       id="g16" /><g
       id="g18" /><g
       id="g20" /><g
       id="g22" /><g
       id="g24" /><g
       id="g26" /><g
       id="g28" /><g
       id="g30" /><g
       id="g32" /><g
       id="g34" /><g
       id="g36" /><g
       id="g38" /><g
       id="g40" /><g
       id="g42" /><g
       id="g44" /><g
       id="g46" /><g
       id="g48" /><g
       id="g50" /><g
       id="g52" /><g
       id="g54" /><g
       id="g56" /><g
       id="g58" /><g
       id="g60" /><g
       id="g62" /><g
       id="g64" /><g
       id="g66" /><g
       id="g68" /><g
       id="g70"><g
         id="g72"
         clip-path="url(#clipPath76)"><path
           d="M 0,0 H 576 V 432 H 0 Z"
           style="fill:#ffffff;fill-opacity:1;fill-rule:nonzero;stroke:#ffffff;stroke-width:1.07000005;stroke-linecap:round;stroke-linejoin:round;stroke-miterlimit:10;stroke-dasharray:none;stroke-opacity:1"
           id="path78"
           inkscape:connector-curvature="0" /></g></g><g
       id="g80" /><g
       id="g82"><g
         id="g84"
         clip-path="url(#clipPath88)"><path
           d="M 47.69,41.57 H 449.02 V 408.84 H 47.69 Z"
           style="fill:#ffffff;fill-opacity:1;fill-rule:nonzero;stroke:none"
           id="path90"
           inkscape:connector-curvature="0" /><path
           d="m 162.65,216.94 c 0,1.95 1.6,3.55 3.55,3.55 1.96,0 3.56,-1.6 3.56,-3.55 0,-1.96 -1.6,-3.56 -3.56,-3.56 -1.95,0 -3.55,1.6 -3.55,3.56"
           style="fill:#00ffff;fill-opacity:1;fill-rule:nonzero;stroke:#00ffff;stroke-width:0.70999998;stroke-linecap:round;stroke-linejoin:round;stroke-miterlimit:10;stroke-dasharray:none;stroke-opacity:1"
           id="path92"
           inkscape:connector-curvature="0" /><path
           d="m 62.38,109.68 c 0,1.95 1.6,3.55 3.55,3.55 1.96,0 3.56,-1.6 3.56,-3.55 0,-1.96 -1.6,-3.56 -3.56,-3.56 -1.95,0 -3.55,1.6 -3.55,3.56"
           style="fill:#00ffff;fill-opacity:1;fill-rule:nonzero;stroke:#00ffff;stroke-width:0.70999998;stroke-linecap:round;stroke-linejoin:round;stroke-miterlimit:10;stroke-dasharray:none;stroke-opacity:1"
           id="path94"
           inkscape:connector-curvature="0" /><path
           d="m 134.03,268.8 c 0,1.96 1.6,3.56 3.55,3.56 1.96,0 3.56,-1.6 3.56,-3.56 0,-1.95 -1.6,-3.55 -3.56,-3.55 -1.95,0 -3.55,1.6 -3.55,3.55"
           style="fill:#00ffff;fill-opacity:1;fill-rule:nonzero;stroke:#00ffff;stroke-width:0.70999998;stroke-linecap:round;stroke-linejoin:round;stroke-miterlimit:10;stroke-dasharray:none;stroke-opacity:1"
           id="path96"
           inkscape:connector-curvature="0" /><path
           d="m 187.39,236.6 c 0,1.95 1.6,3.55 3.55,3.55 1.96,0 3.56,-1.6 3.56,-3.55 0,-1.96 -1.6,-3.56 -3.56,-3.56 -1.95,0 -3.55,1.6 -3.55,3.56"
           style="fill:#00ffff;fill-opacity:1;fill-rule:nonzero;stroke:#00ffff;stroke-width:0.70999998;stroke-linecap:round;stroke-linejoin:round;stroke-miterlimit:10;stroke-dasharray:none;stroke-opacity:1"
           id="path98"
           inkscape:connector-curvature="0" /><path
           d="m 151.5,218.74 c 0,1.95 1.6,3.55 3.55,3.55 1.96,0 3.56,-1.6 3.56,-3.55 0,-1.96 -1.6,-3.56 -3.56,-3.56 -1.95,0 -3.55,1.6 -3.55,3.56"
           style="fill:#00ffff;fill-opacity:1;fill-rule:nonzero;stroke:#00ffff;stroke-width:0.70999998;stroke-linecap:round;stroke-linejoin:round;stroke-miterlimit:10;stroke-dasharray:none;stroke-opacity:1"
           id="path100"
           inkscape:connector-curvature="0" /><path
           d="m 215.34,190.98 c 0,1.95 1.6,3.55 3.56,3.55 1.95,0 3.55,-1.6 3.55,-3.55 0,-1.96 -1.6,-3.56 -3.55,-3.56 -1.96,0 -3.56,1.6 -3.56,3.56"
           style="fill:#00ffff;fill-opacity:1;fill-rule:nonzero;stroke:#00ffff;stroke-width:0.70999998;stroke-linecap:round;stroke-linejoin:round;stroke-miterlimit:10;stroke-dasharray:none;stroke-opacity:1"
           id="path102"
           inkscape:connector-curvature="0" /><path
           d="m 201.04,239.34 c 0,1.96 1.6,3.56 3.56,3.56 1.95,0 3.55,-1.6 3.55,-3.56 0,-1.95 -1.6,-3.55 -3.55,-3.55 -1.96,0 -3.56,1.6 -3.56,3.55"
           style="fill:#00ffff;fill-opacity:1;fill-rule:nonzero;stroke:#00ffff;stroke-width:0.70999998;stroke-linecap:round;stroke-linejoin:round;stroke-miterlimit:10;stroke-dasharray:none;stroke-opacity:1"
           id="path104"
           inkscape:connector-curvature="0" /><path
           d="m 160.28,241.01 c 0,1.96 1.6,3.56 3.55,3.56 1.96,0 3.56,-1.6 3.56,-3.56 0,-1.95 -1.6,-3.55 -3.56,-3.55 -1.95,0 -3.55,1.6 -3.55,3.55"
           style="fill:#00ffff;fill-opacity:1;fill-rule:nonzero;stroke:#00ffff;stroke-width:0.70999998;stroke-linecap:round;stroke-linejoin:round;stroke-miterlimit:10;stroke-dasharray:none;stroke-opacity:1"
           id="path106"
           inkscape:connector-curvature="0" /><path
           d="m 75.05,219.07 c 0,1.96 1.6,3.56 3.56,3.56 1.95,0 3.55,-1.6 3.55,-3.56 0,-1.96 -1.6,-3.56 -3.55,-3.56 -1.96,0 -3.56,1.6 -3.56,3.56"
           style="fill:#00ffff;fill-opacity:1;fill-rule:nonzero;stroke:#00ffff;stroke-width:0.70999998;stroke-linecap:round;stroke-linejoin:round;stroke-miterlimit:10;stroke-dasharray:none;stroke-opacity:1"
           id="path108"
           inkscape:connector-curvature="0" /><path
           d="m 144.42,240.69 c 0,1.96 1.6,3.56 3.55,3.56 1.96,0 3.56,-1.6 3.56,-3.56 0,-1.95 -1.6,-3.55 -3.56,-3.55 -1.95,0 -3.55,1.6 -3.55,3.55"
           style="fill:#00ffff;fill-opacity:1;fill-rule:nonzero;stroke:#00ffff;stroke-width:0.70999998;stroke-linecap:round;stroke-linejoin:round;stroke-miterlimit:10;stroke-dasharray:none;stroke-opacity:1"
           id="path110"
           inkscape:connector-curvature="0" /><path
           d="m 246.76,108.32 c 0,1.96 1.6,3.56 3.56,3.56 1.96,0 3.56,-1.6 3.56,-3.56 0,-1.95 -1.6,-3.55 -3.56,-3.55 -1.96,0 -3.56,1.6 -3.56,3.55"
           style="fill:#00ffff;fill-opacity:1;fill-rule:nonzero;stroke:#00ffff;stroke-width:0.70999998;stroke-linecap:round;stroke-linejoin:round;stroke-miterlimit:10;stroke-dasharray:none;stroke-opacity:1"
           id="path112"
           inkscape:connector-curvature="0" /><path
           d="m 121.39,251.7 c 0,1.95 1.6,3.55 3.55,3.55 1.96,0 3.56,-1.6 3.56,-3.55 0,-1.96 -1.6,-3.56 -3.56,-3.56 -1.95,0 -3.55,1.6 -3.55,3.56"
           style="fill:#00ffff;fill-opacity:1;fill-rule:nonzero;stroke:#00ffff;stroke-width:0.70999998;stroke-linecap:round;stroke-linejoin:round;stroke-miterlimit:10;stroke-dasharray:none;stroke-opacity:1"
           id="path114"
           inkscape:connector-curvature="0" /><path
           d="m 135.84,135.67 3.56,3.55 3.56,-3.55 -3.56,-3.56 z"
           style="fill:#ff0000;fill-opacity:1;fill-rule:nonzero;stroke:none"
           id="path116"
           inkscape:connector-curvature="0" /><path
           d="m 261.9,152.73 3.55,3.56 3.56,-3.56 -3.56,-3.55 z"
           style="fill:#ff0000;fill-opacity:1;fill-rule:nonzero;stroke:none"
           id="path118"
           inkscape:connector-curvature="0" /><path
           d="m 97.35,216.11 3.55,3.55 3.56,-3.55 -3.56,-3.56 z"
           style="fill:#ff0000;fill-opacity:1;fill-rule:nonzero;stroke:none"
           id="path120"
           inkscape:connector-curvature="0" /><path
           d="m 226.72,98.4 3.55,3.55 3.56,-3.55 -3.56,-3.56 z"
           style="fill:#ff0000;fill-opacity:1;fill-rule:nonzero;stroke:none"
           id="path122"
           inkscape:connector-curvature="0" /><path
           d="m 224.22,188.22 3.55,3.55 3.56,-3.55 -3.56,-3.56 z"
           style="fill:#ff0000;fill-opacity:1;fill-rule:nonzero;stroke:none"
           id="path124"
           inkscape:connector-curvature="0" /><path
           d="m 246.37,149.43 3.56,3.56 3.56,-3.56 -3.56,-3.56 z"
           style="fill:#ff0000;fill-opacity:1;fill-rule:nonzero;stroke:none"
           id="path126"
           inkscape:connector-curvature="0" /><path
           d="m 115.01,181.08 3.56,3.55 3.55,-3.55 -3.55,-3.56 z"
           style="fill:#ff0000;fill-opacity:1;fill-rule:nonzero;stroke:none"
           id="path128"
           inkscape:connector-curvature="0" /><path
           d="m 127.09,190.58 3.56,3.55 3.55,-3.55 -3.55,-3.56 z"
           style="fill:#ff0000;fill-opacity:1;fill-rule:nonzero;stroke:none"
           id="path130"
           inkscape:connector-curvature="0" /><path
           d="m 213.82,109.32 3.56,3.56 3.55,-3.56 -3.55,-3.56 z"
           style="fill:#ff0000;fill-opacity:1;fill-rule:nonzero;stroke:none"
           id="path132"
           inkscape:connector-curvature="0" /><path
           d="m 256.72,168.09 3.56,3.55 3.55,-3.55 -3.55,-3.56 z"
           style="fill:#ff0000;fill-opacity:1;fill-rule:nonzero;stroke:none"
           id="path134"
           inkscape:connector-curvature="0" /><path
           d="m 283.57,63.5 3.56,3.55 3.55,-3.55 -3.55,-3.56 z"
           style="fill:#ff0000;fill-opacity:1;fill-rule:nonzero;stroke:none"
           id="path136"
           inkscape:connector-curvature="0" /><path
           d="m 195.1,230.57 3.55,3.56 3.56,-3.56 -3.56,-3.55 z"
           style="fill:#ff0000;fill-opacity:1;fill-rule:nonzero;stroke:none"
           id="path138"
           inkscape:connector-curvature="0" /><path
           d="m 318.17,203.65 3.56,3.56 3.56,-3.56 -3.56,-3.55 z"
           style="fill:#ff0000;fill-opacity:1;fill-rule:nonzero;stroke:none"
           id="path140"
           inkscape:connector-curvature="0" /><path
           d="m 211.66,151.23 3.56,3.56 3.55,-3.56 -3.55,-3.55 z"
           style="fill:#ff0000;fill-opacity:1;fill-rule:nonzero;stroke:none"
           id="path142"
           inkscape:connector-curvature="0" /><path
           d="m 184.99,234.27 3.55,3.56 3.56,-3.56 -3.56,-3.55 z"
           style="fill:#ff0000;fill-opacity:1;fill-rule:nonzero;stroke:none"
           id="path144"
           inkscape:connector-curvature="0" /><path
           d="M 156.51,41.57 V 408.85"
           style="fill:none;stroke:#a52a2a;stroke-width:1.07000005;stroke-linecap:butt;stroke-linejoin:round;stroke-miterlimit:10;stroke-dasharray:none;stroke-opacity:1"
           id="path146"
           inkscape:connector-curvature="0" /><path
           d="M 218.11,41.57 V 408.85"
           style="fill:none;stroke:#fedd00;stroke-width:1.07000005;stroke-linecap:butt;stroke-linejoin:round;stroke-miterlimit:10;stroke-dasharray:none;stroke-opacity:1"
           id="path148"
           inkscape:connector-curvature="0" /><path
           d="M 47.69,151.59 H 449.02"
           style="fill:none;stroke:#a52a2a;stroke-width:1.07000005;stroke-linecap:butt;stroke-linejoin:round;stroke-miterlimit:10;stroke-dasharray:none;stroke-opacity:1"
           id="path150"
           inkscape:connector-curvature="0" /><path
           d="M 47.69,217.8 H 449.02"
           style="fill:none;stroke:#fedd00;stroke-width:1.07000005;stroke-linecap:butt;stroke-linejoin:round;stroke-miterlimit:10;stroke-dasharray:none;stroke-opacity:1"
           id="path152"
           inkscape:connector-curvature="0" /></g></g><g
       id="g154" /><g
       id="g156" /><g
       id="g158" /><g
       id="g160" /><g
       id="g162" /><g
       id="g164" /><g
       id="g166" /><g
       id="g168" /><g
       id="g170" /><g
       id="g172" /><g
       id="g174" /><g
       id="g176" /><g
       id="g178"><path
         d="M 47.69,41.57 V 408.85"
         style="fill:none;stroke:#000000;stroke-width:1.07000005;stroke-linecap:butt;stroke-linejoin:round;stroke-miterlimit:10;stroke-dasharray:none;stroke-opacity:1"
         id="path180"
         inkscape:connector-curvature="0" /></g><g
       id="g182" /><g
       id="g184" /><g
       id="g186"><text
         transform="matrix(1,0,0,-1,21.35,58.27)"
         style="font-variant:normal;font-weight:normal;font-size:11px;font-family:Helvetica;-inkscape-font-specification:Helvetica;writing-mode:lr-tb;fill:#333333;fill-opacity:1;fill-rule:nonzero;stroke:none"
         id="text190"><tspan
           x="0 6.1160002 9.1739998 15.29"
           y="0"
           sodipodi:role="line"
           id="tspan188">0.00</tspan></text>
<text
         transform="matrix(1,0,0,-1,21.35,141.74)"
         style="font-variant:normal;font-weight:normal;font-size:11px;font-family:Helvetica;-inkscape-font-specification:Helvetica;writing-mode:lr-tb;fill:#333333;fill-opacity:1;fill-rule:nonzero;stroke:none"
         id="text194"><tspan
           x="0 6.1160002 9.1739998 15.29"
           y="0"
           sodipodi:role="line"
           id="tspan192">0.25</tspan></text>
<text
         transform="matrix(1,0,0,-1,21.35,225.21)"
         style="font-variant:normal;font-weight:normal;font-size:11px;font-family:Helvetica;-inkscape-font-specification:Helvetica;writing-mode:lr-tb;fill:#333333;fill-opacity:1;fill-rule:nonzero;stroke:none"
         id="text198"><tspan
           x="0 6.1160002 9.1739998 15.29"
           y="0"
           sodipodi:role="line"
           id="tspan196">0.50</tspan></text>
<text
         transform="matrix(1,0,0,-1,21.35,308.68)"
         style="font-variant:normal;font-weight:normal;font-size:11px;font-family:Helvetica;-inkscape-font-specification:Helvetica;writing-mode:lr-tb;fill:#333333;fill-opacity:1;fill-rule:nonzero;stroke:none"
         id="text202"><tspan
           x="0 6.1160002 9.1739998 15.29"
           y="0"
           sodipodi:role="line"
           id="tspan200">0.75</tspan></text>
<text
         transform="matrix(1,0,0,-1,21.35,392.15)"
         style="font-variant:normal;font-weight:normal;font-size:11px;font-family:Helvetica;-inkscape-font-specification:Helvetica;writing-mode:lr-tb;fill:#333333;fill-opacity:1;fill-rule:nonzero;stroke:none"
         id="text206"><tspan
           x="0 6.1160002 9.1739998 15.29"
           y="0"
           sodipodi:role="line"
           id="tspan204">1.00</tspan></text>
</g><g
       id="g208" /><g
       id="g210"><path
         d="m 44.95,58.27 h 2.74"
         style="fill:none;stroke:#333333;stroke-width:1.07000005;stroke-linecap:butt;stroke-linejoin:round;stroke-miterlimit:10;stroke-dasharray:none;stroke-opacity:1"
         id="path212"
         inkscape:connector-curvature="0" /><path
         d="m 44.95,141.74 h 2.74"
         style="fill:none;stroke:#333333;stroke-width:1.07000005;stroke-linecap:butt;stroke-linejoin:round;stroke-miterlimit:10;stroke-dasharray:none;stroke-opacity:1"
         id="path214"
         inkscape:connector-curvature="0" /><path
         d="m 44.95,225.21 h 2.74"
         style="fill:none;stroke:#333333;stroke-width:1.07000005;stroke-linecap:butt;stroke-linejoin:round;stroke-miterlimit:10;stroke-dasharray:none;stroke-opacity:1"
         id="path216"
         inkscape:connector-curvature="0" /><path
         d="m 44.95,308.68 h 2.74"
         style="fill:none;stroke:#333333;stroke-width:1.07000005;stroke-linecap:butt;stroke-linejoin:round;stroke-miterlimit:10;stroke-dasharray:none;stroke-opacity:1"
         id="path218"
         inkscape:connector-curvature="0" /><path
         d="m 44.95,392.15 h 2.74"
         style="fill:none;stroke:#333333;stroke-width:1.07000005;stroke-linecap:butt;stroke-linejoin:round;stroke-miterlimit:10;stroke-dasharray:none;stroke-opacity:1"
         id="path220"
         inkscape:connector-curvature="0" /></g><g
       id="g222" /><g
       id="g224" /><g
       id="g226" /><g
       id="g228" /><g
       id="g230" /><g
       id="g232" /><g
       id="g234"><path
         d="M 47.69,41.57 H 449.02"
         style="fill:none;stroke:#000000;stroke-width:1.07000005;stroke-linecap:butt;stroke-linejoin:round;stroke-miterlimit:10;stroke-dasharray:none;stroke-opacity:1"
         id="path236"
         inkscape:connector-curvature="0" /></g><g
       id="g238" /><g
       id="g240" /><g
       id="g242"><path
         d="m 115.74,38.83 v 2.74"
         style="fill:none;stroke:#333333;stroke-width:1.07000005;stroke-linecap:butt;stroke-linejoin:round;stroke-miterlimit:10;stroke-dasharray:none;stroke-opacity:1"
         id="path244"
         inkscape:connector-curvature="0" /><path
         d="m 227.06,38.83 v 2.74"
         style="fill:none;stroke:#333333;stroke-width:1.07000005;stroke-linecap:butt;stroke-linejoin:round;stroke-miterlimit:10;stroke-dasharray:none;stroke-opacity:1"
         id="path246"
         inkscape:connector-curvature="0" /><path
         d="m 338.39,38.83 v 2.74"
         style="fill:none;stroke:#333333;stroke-width:1.07000005;stroke-linecap:butt;stroke-linejoin:round;stroke-miterlimit:10;stroke-dasharray:none;stroke-opacity:1"
         id="path248"
         inkscape:connector-curvature="0" /></g><g
       id="g250" /><g
       id="g252"><text
         transform="matrix(0,1,1,0,119.69,21.35)"
         style="font-variant:normal;font-weight:normal;font-size:11px;font-family:Helvetica;-inkscape-font-specification:Helvetica;writing-mode:lr-tb;fill:#333333;fill-opacity:1;fill-rule:nonzero;stroke:none"
         id="text256"><tspan
           x="0 6.1160002 9.1739998"
           y="0"
           sodipodi:role="line"
           id="tspan254">1.5</tspan></text>
<text
         transform="matrix(0,1,1,0,231.01,21.35)"
         style="font-variant:normal;font-weight:normal;font-size:11px;font-family:Helvetica;-inkscape-font-specification:Helvetica;writing-mode:lr-tb;fill:#333333;fill-opacity:1;fill-rule:nonzero;stroke:none"
         id="text260"><tspan
           x="0 6.1160002 9.1739998"
           y="0"
           sodipodi:role="line"
           id="tspan258">2.0</tspan></text>
<text
         transform="matrix(0,1,1,0,342.34,21.35)"
         style="font-variant:normal;font-weight:normal;font-size:11px;font-family:Helvetica;-inkscape-font-specification:Helvetica;writing-mode:lr-tb;fill:#333333;fill-opacity:1;fill-rule:nonzero;stroke:none"
         id="text264"><tspan
           x="0 6.1160002 9.1739998"
           y="0"
           sodipodi:role="line"
           id="tspan262">2.5</tspan></text>
</g><g
       id="g266" /><g
       id="g268" /><g
       id="g270" /><g
       id="g272" /><g
       id="g274" /><g
       id="g276"><text
         transform="matrix(1,0,0,-1,193.26,5.48)"
         style="font-variant:normal;font-weight:bold;font-size:14px;font-family:Helvetica;-inkscape-font-specification:Helvetica-Bold;writing-mode:lr-tb;fill:#333333;fill-opacity:1;fill-rule:nonzero;stroke:none"
         id="text280"><tspan
           x="0 10.108 21 31.108 40.445999 49 58.827999 68.935997 72.828003 80.612 88.396004 96.949997 102.396"
           y="0"
           sodipodi:role="line"
           id="tspan278">CONSTRU score</tspan></text>
</g><g
       id="g282" /><g
       id="g284"><text
         transform="matrix(0,1,1,0,17.07,192.53)"
         style="font-variant:normal;font-weight:bold;font-size:14px;font-family:Helvetica;-inkscape-font-specification:Helvetica-Bold;writing-mode:lr-tb;fill:#333333;fill-opacity:1;fill-rule:nonzero;stroke:none"
         id="text288"><tspan
           x="0 3.892 14 24.108 28 35.784 43.568001 52.122002 57.568001"
           y="0"
           sodipodi:role="line"
           id="tspan286">ICR score</tspan></text>
</g><g
       id="g290" /><g
       id="g292" /><g
       id="g294" /><g
       id="g296" /><g
       id="g298" /><g
       id="g300" /><g
       id="g302" /><g
       id="g304"><path
         d="m 459.98,247.97 h 110.54 v 65.62 H 459.98 Z"
         style="fill:#ffffff;fill-opacity:1;fill-rule:nonzero;stroke:none"
         id="path306"
         inkscape:connector-curvature="0" /></g><g
       id="g308" /><g
       id="g310" /><g
       id="g312" /><g
       id="g314"><text
         transform="matrix(1,0,0,-1,465.46,296.52)"
         style="font-variant:normal;font-weight:bold;font-size:14px;font-family:Helvetica;-inkscape-font-specification:Helvetica-Bold;writing-mode:lr-tb;fill:#333333;fill-opacity:1;fill-rule:nonzero;stroke:none"
         id="text318"><tspan
           x="0 10.892 16.337999 20.23 28.784 32.675999 42.784 50.568001 58.352001 66.905998 75.459999 84.014 91.797997"
           y="0"
           sodipodi:role="line"
           id="tspan316">Orig Response</tspan></text>
</g><g
       id="g320" /><g
       id="g322" /><g
       id="g324" /><g
       id="g326" /><g
       id="g328"><path
         d="m 470.54,279.37 3.56,3.55 3.55,-3.55 -3.55,-3.56 z"
         style="fill:#000000;fill-opacity:1;fill-rule:nonzero;stroke:none"
         id="path330"
         inkscape:connector-curvature="0" /></g><g
       id="g332" /><g
       id="g334" /><g
       id="g336" /><g
       id="g338"><path
         d="m 470.54,262.09 c 0,1.95 1.6,3.55 3.56,3.55 1.95,0 3.55,-1.6 3.55,-3.55 0,-1.96 -1.6,-3.56 -3.55,-3.56 -1.96,0 -3.56,1.6 -3.56,3.56"
         style="fill:#000000;fill-opacity:1;fill-rule:nonzero;stroke:#000000;stroke-width:0.70999998;stroke-linecap:round;stroke-linejoin:round;stroke-miterlimit:10;stroke-dasharray:none;stroke-opacity:1"
         id="path340"
         inkscape:connector-curvature="0" /></g><g
       id="g342" /><g
       id="g344" /><g
       id="g346" /><g
       id="g348"><text
         transform="matrix(1,0,0,-1,489.71,275.42)"
         style="font-variant:normal;font-weight:normal;font-size:11px;font-family:Helvetica;-inkscape-font-specification:Helvetica;writing-mode:lr-tb;fill:#333333;fill-opacity:1;fill-rule:nonzero;stroke:none"
         id="text352"><tspan
           sodipodi:role="line"
           id="tspan350"
           x="0"
           y="0">Adjuvant</tspan></text>
</g><g
       id="g354" /><g
       id="g356" /><g
       id="g358" /><g
       id="g360" /><g
       id="g362"><text
         transform="matrix(1,0,0,-1,489.71,258.14)"
         style="font-variant:normal;font-weight:normal;font-size:11px;font-family:Helvetica;-inkscape-font-specification:Helvetica;writing-mode:lr-tb;fill:#333333;fill-opacity:1;fill-rule:nonzero;stroke:none"
         id="text366"><tspan
           x="0"
           y="0"
           id="tspan364">Neoadjuvant</tspan></text>
</g><g
       id="g368" /><g
       id="g370" /><g
       id="g372" /><g
       id="g374" /><g
       id="g376" /><g
       id="g380" /><g
       id="g382" /><g
       id="g384" /><g
       id="g386"><text
         transform="matrix(1,0,0,-1,465.46,219.94)"
         style="font-variant:normal;font-weight:bold;font-size:14px;font-family:Helvetica;-inkscape-font-specification:Helvetica-Bold;writing-mode:lr-tb;fill:#333333;fill-opacity:1;fill-rule:nonzero;stroke:none"
         id="text390"><tspan
           x="0 10.108 17.892 25.676001 34.23 42.784 51.338001 59.122002"
           y="0"
           sodipodi:role="line"
           id="tspan388">Response</tspan></text>
</g><g
       id="g392" /><g
       id="g394" /><g
       id="g396" /><g
       id="g398" /><g
       id="g400"><path
         d="m 470.54,202.79 c 0,1.95 1.6,3.55 3.56,3.55 1.95,0 3.55,-1.6 3.55,-3.55 0,-1.96 -1.6,-3.56 -3.55,-3.56 -1.96,0 -3.56,1.6 -3.56,3.56"
         style="fill:#ff0000;fill-opacity:1;fill-rule:nonzero;stroke:#ff0000;stroke-width:0.70999998;stroke-linecap:round;stroke-linejoin:round;stroke-miterlimit:10;stroke-dasharray:none;stroke-opacity:1"
         id="path402"
         inkscape:connector-curvature="0" /></g><g
       id="g404" /><g
       id="g406" /><g
       id="g408" /><g
       id="g414" /><g
       id="g416" /><g
       id="g418" /><g
       id="g420"
       transform="translate(0,19.5)"><path
         d="m 470.54,168.23 c 0,1.95 1.6,3.55 3.56,3.55 1.95,0 3.55,-1.6 3.55,-3.55 0,-1.96 -1.6,-3.56 -3.55,-3.56 -1.96,0 -3.56,1.6 -3.56,3.56"
         style="fill:#00ffff;fill-opacity:1;fill-rule:nonzero;stroke:#00ffff;stroke-width:0.70999998;stroke-linecap:round;stroke-linejoin:round;stroke-miterlimit:10;stroke-dasharray:none;stroke-opacity:1"
         id="path422"
         inkscape:connector-curvature="0" /></g><g
       id="g424" /><g
       id="g426" /><g
       id="g428" /><g
       id="g434" /><g
       id="g436" /><g
       id="g438" /><g
       id="g440"><text
         transform="matrix(1,0,0,-1,489.71,198.84)"
         style="font-variant:normal;font-weight:normal;font-size:11px;font-family:Helvetica;-inkscape-font-specification:Helvetica;writing-mode:lr-tb;fill:#333333;fill-opacity:1;fill-rule:nonzero;stroke:none"
         id="text444"><tspan
           sodipodi:role="line"
           id="tspan442"
           x="0"
           y="0">Adjuvant</tspan></text>
</g><g
       id="g446" /><g
       id="g448" /><g
       id="g450" /><g
       id="g452" /><g
       id="g454"><text
         transform="matrix(1,0,0,-1,489.71,181.56)"
         style="font-variant:normal;font-weight:normal;font-size:11px;font-family:Helvetica;-inkscape-font-specification:Helvetica;writing-mode:lr-tb;fill:#333333;fill-opacity:1;fill-rule:nonzero;stroke:none"
         id="text458"><tspan
           sodipodi:role="line"
           id="tspan456"
           x="0"
           y="9.3940001" /></text>
</g><g
       id="g460" /><g
       id="g462" /><g
       id="g464" /><g
       id="g466" /><g
       id="g468"
       transform="translate(0,21)"><text
         transform="matrix(1,0,0,-1,489.71,164.28)"
         style="font-variant:normal;font-weight:normal;font-size:11px;font-family:Helvetica;-inkscape-font-specification:Helvetica;writing-mode:lr-tb;fill:#333333;fill-opacity:1;fill-rule:nonzero;stroke:none"
         id="text472"><tspan
           sodipodi:role="line"
           id="tspan470"
           x="0"
           y="0">Neoadjuvant</tspan></text>
</g><g
       id="g474" /><g
       id="g476" /><g
       id="g478" /><g
       id="g480" /><g
       id="g482"><text
         transform="matrix(1,0,0,-1,489.71,147)"
         style="font-variant:normal;font-weight:normal;font-size:11px;font-family:Helvetica;-inkscape-font-specification:Helvetica;writing-mode:lr-tb;fill:#333333;fill-opacity:1;fill-rule:nonzero;stroke:none"
         id="text486"><tspan
           sodipodi:role="line"
           id="tspan484"
           x="0"
           y="9.3940001" /></text>
</g><g
       id="g488" /><g
       id="g490" /><g
       id="g492" /><g
       id="g494" /><g
       id="g496" /><g
       id="g498" /><g
       id="g500"><text
         transform="matrix(1,0,0,-1,47.69,417.19)"
         style="font-variant:normal;font-weight:normal;font-size:13px;font-family:Helvetica;-inkscape-font-specification:Helvetica;writing-mode:lr-tb;fill:#000000;fill-opacity:1;fill-rule:nonzero;stroke:none"
         id="text504"><tspan
           x="0 10.114 18.785 27.455999 34.683998 41.911999 49.139999 56.368 63.596001 70.823997 74.438004 78.766998 88.880997 91.766998 94.653 101.881 108.849 111.735 118.963 125.463 129.077 136.30499 147.134 154.362"
           y="0"
           sodipodi:role="line"
           id="tspan502">GSE121810 (Glioblastoma)</tspan></text>
</g><g
       id="g506" /><g
       id="g508" /><g
       id="g510" /><g
       id="g512" /><g
       id="g514" /><g
       id="g516" /></g></svg>